<svg xmlns="http://www.w3.org/2000/svg" shape-rendering="geometricPrecision" text-rendering="geometricPrecision" image-rendering="optimizeQuality" fill-rule="evenodd" clip-rule="evenodd" viewBox="0 0 492 512.324"><circle fill="#F33" cx="231.181" cy="231.181" r="231.181"/><path fill="#B22424" d="M437.687 127.17C471.6 167.894 492 220.259 492 277.396c0 129.745-105.183 234.928-234.928 234.928-103.431 0-191.249-66.843-222.619-159.684 40.74 65.851 113.605 109.722 196.728 109.722 127.682 0 231.181-103.499 231.181-231.181 0-37.413-8.898-72.75-24.675-104.011z"/><path fill="#fff" fill-rule="nonzero" d="M164.988 157.846H297.36c4.357 0 7.908 3.632 7.908 7.909v130.848c0 4.277-3.621 7.908-7.908 7.908H164.988c-4.276 0-7.898-3.55-7.898-7.908V165.755c0-4.348 3.551-7.909 7.898-7.909z"/></svg>